<svg width="100%" height="100%" fill="#0080FF" viewBox="0 0 32 32" version="1.1" xmlns="http://www.w3.org/2000/svg" xmlns:xlink="http://www.w3.org/1999/xlink" xml:space="preserve" xmlns:serif="http://www.serif.com/" style="fill-rule:evenodd;clip-rule:evenodd;stroke-linejoin:round;stroke-miterlimit:2;">
    <g transform="matrix(1.039419,0,0,0.96,3.007259,4)">
        <path d="M25,4.167L25,20.833C25,23.133 23.276,25 21.152,25L3.848,25C1.724,25 0,23.133 0,20.833L0,4.167C0,1.867 1.724,0 3.848,0L21.152,0C23.276,0 25,1.867 25,4.167Z" style="fill:white;"/>
    </g>
    <g transform="matrix(1,0,0,1,4.000012,4)">
        <path d="M12.04 0C5.408-.02.005 5.37.005 11.992h4.638c0-4.923 4.882-8.731 10.064-6.855a6.95 6.95 0 014.147 4.148c1.889 5.177-1.924 10.055-6.84 10.064v-4.61H7.391v4.623h4.61V24c7.86 0 13.967-7.588 11.397-15.83-1.115-3.59-3.985-6.446-7.575-7.575A12.8 12.8 0 0012.039 0zM7.39 19.362H3.828v3.564H7.39zm-3.563 0v-2.978H.85v2.978z"/>
    </g>
</svg>